<?xml version="1.0" encoding="UTF-8"?>
<svg id="Layer_2" data-name="Layer 2" xmlns="http://www.w3.org/2000/svg" viewBox="0 0 439.79 107.51">
  <g id="Layer_1-2" data-name="Layer 1">
    <path d="M92.12,27.1c0,8-2.21,15.14-6.63,21.43-4.42,6.24-10.46,10.8-18.11,13.7l16.5,42.86h-28.79l-12.74-39.4h-11.27l-6.63,39.4H0L17.53,0h44.03c20.37-.05,30.56,8.98,30.56,27.1ZM38.29,22.02l-4.05,24.23h14.14c5.5,0,9.79-1.26,12.89-3.79s4.64-6.08,4.64-10.64c0-3.24-1.01-5.68-3.02-7.33-2.01-1.64-4.79-2.47-8.32-2.47h-16.27Z"/>
    <g>
      <path d="M222.42,52.58l-4.05,24.15c-.93,6.82.98,10.24,5.74,10.24,4.17,0,8.15-1.2,11.93-3.61l.59,19c-6.09,3.44-13.57,5.15-22.46,5.15-16.15,0-22.63-9.4-19.44-28.2l4.34-26.73h-7.22l2.87-19.59h7.66l3.61-21.72h23.42l-3.68,21.72h17.38l-3.17,19.59h-17.53Z"/>
      <path d="M339.94,30.71c14.58,0,20.4,8.81,17.45,26.43l-7.95,47.94h-23.27l6.77-41.6c1.23-7.85-1.03-11.78-6.77-11.78-4.81,0-8.84,3.02-12.08,9.06l-7.36,44.33h-23.34l7.07-42.05c1.33-7.85-.88-11.78-6.63-11.78-4.71,0-8.84,3.07-12.37,9.21l-7.36,44.62h-23.27l11.93-72.09h21.72l-.88,11.49c5.74-9.18,13.97-13.82,24.67-13.92,2.26,0,4.37.29,6.33.88,1.96.59,3.69,1.51,5.19,2.76,1.5,1.25,2.72,2.82,3.68,4.71.96,1.89,1.58,4.14,1.88,6.74,5.84-9.97,14.04-14.95,24.59-14.95Z"/>
      <path d="M395.17,107.51c-9.52,0-17.21-2.5-23.05-7.51-5.84-4.96-8.76-12.67-8.76-23.12,0-13.11,4.27-24.1,12.81-32.99,8.54-8.88,19.59-13.33,33.14-13.33,8.84,0,16.13,2.5,21.87,7.51,5.74,5.06,8.62,12.81,8.62,23.27,0,14.09-4.27,25.31-12.81,33.65-8.59,8.35-19.19,12.52-31.81,12.52ZM397.45,86.23c5.01.2,9.38-1.57,13.11-5.3,3.78-3.68,5.84-8.54,6.19-14.58.15-2.4-.03-4.52-.52-6.33-.49-1.82-1.23-3.33-2.21-4.53-.98-1.2-2.17-2.12-3.57-2.76-1.4-.64-2.93-.98-4.6-1.03-5.06-.25-9.52,1.57-13.4,5.45-3.78,3.78-5.79,8.59-6.04,14.43-.29,4.76.55,8.35,2.54,10.75,1.99,2.41,4.82,3.71,8.5,3.9Z"/>
    </g>
    <g>
      <ellipse cx="161.04" cy="10.84" rx="10.83" ry="10.63" transform="translate(4.13 48.65) rotate(-17.4)"/>
      <path d="M187.48,35.24c-.62-1.97-2.4-3.25-4.35-3.33l-.09-.27-16.34,5.12-5.54-6.89c-.02-.1-.05-.2-.08-.29-.39-1.24-1.23-2.2-2.29-2.77h0s-26.77-16.64-26.77-16.64v.02c-1.08-.53-2.34-.67-3.56-.28-.13.04-.26.09-.38.14v-.02s-18.36,5.75-18.36,5.75c-2.51.79-3.91,3.46-3.12,5.98s3.46,3.91,5.98,3.12l16.65-5.22,6.49,4.03c.02.1.05.19.08.29.1.31.22.6.38.88l-15.19,27.22.11.06c-1.1,1.58-1.48,3.62-.87,5.6s2.06,3.39,3.82,4.07v.02s21.49,11.62,21.49,11.62l-18.12,10.4s-.04.01-.07.02c-2.54.8-3.95,3.5-3.16,6.04s3.5,3.95,6.04,3.16c.71-.22,1.33-.6,1.84-1.08l24.38-13.99h0c.21-.04.41-.09.62-.15,2.82-.88,4.39-3.88,3.5-6.7-.47-1.49-1.53-2.62-2.84-3.24l-16.91-13.61,12.78-16.74c.28-.03.57-.09.85-.18.14-.04.27-.09.4-.15l5.64,7,.17-.14c.75,1.8,2.5,2.93,4.38,2.93l.07.21,20.78-6.51-.09-.27c1.55-1.18,2.29-3.25,1.67-5.22Z"/>
      <path d="M119.19,67.57c-2.42-1.85-3.82-4.32-3.83-6.36h0s-18.17,29.26-18.17,29.26l-3.47,5.05.09.06c-1.44,1.38-2.07,3.49-1.43,5.52.89,2.85,3.92,4.43,6.77,3.54,1.58-.5,2.77-1.65,3.37-3.07l.09.06,21.94-31.88c-1.67-.11-3.59-.85-5.33-2.18Z"/>
    </g>
  </g>
</svg>