<svg width="226" height="72" viewBox="0 0 226 72" fill="none" xmlns="http://www.w3.org/2000/svg">
<g clip-path="url(#clip0_727_1406)">
<path d="M55.2441 23.1077C55.2441 26.9771 54.1587 30.4306 51.9879 33.4729C49.817 36.491 46.8505 38.6966 43.0932 40.0993L51.1971 60.8296H37.0571L30.7999 41.7728H25.2647L22.0085 60.8296H10L18.6097 10.0001H40.2348C50.2394 9.97592 55.2441 14.3435 55.2441 23.1077ZM28.8059 20.6506L26.8168 32.3701H33.7615C36.4628 32.3701 38.5698 31.7607 40.0924 30.537C41.6149 29.3133 42.3713 27.5962 42.3713 25.3907C42.3713 23.8236 41.8752 22.6434 40.888 21.8453C39.9008 21.0521 38.5354 20.6506 36.8017 20.6506H28.8108H28.8059Z" fill="#FFECEC"/>
<path d="M119.24 35.4318L117.251 47.1126C116.794 50.4113 117.732 52.0654 120.07 52.0654C122.118 52.0654 124.073 51.485 125.929 50.3194L126.219 59.5092C123.228 61.173 119.554 62.0001 115.188 62.0001C107.256 62.0001 104.073 57.4536 105.64 48.3605L107.772 35.4318H104.226L105.635 25.9566H109.397L111.17 15.4512H122.673L120.866 25.9566H129.402L127.845 35.4318H119.235H119.24Z" fill="#FFECEC"/>
<path d="M176.959 24.8538C184.12 24.8538 186.979 29.115 185.53 37.6374L181.625 60.8248H170.196L173.521 40.7039C174.126 36.9071 173.016 35.0062 170.196 35.0062C167.834 35.0062 165.855 36.4669 164.263 39.3883L160.649 60.8297H149.185L152.658 40.4911C153.311 36.6942 152.225 34.7934 149.401 34.7934C147.088 34.7934 145.06 36.2783 143.326 39.248L139.711 60.8297H128.282L134.142 25.9615H144.809L144.377 31.5189C147.196 27.0788 151.238 24.8345 156.494 24.7861C157.603 24.7861 158.64 24.9264 159.602 25.2118C160.565 25.4971 161.415 25.9421 162.151 26.5467C162.888 27.1513 163.487 27.9107 163.959 28.8248C164.43 29.739 164.735 30.8272 164.882 32.0848C167.751 27.2626 171.778 24.8538 176.959 24.8538Z" fill="#FFECEC"/>
<path d="M204.085 62.0001C199.41 62.0001 195.633 60.7909 192.764 58.3677C189.896 55.9687 188.462 52.2395 188.462 47.1851C188.462 40.8441 190.559 35.5285 194.753 31.2287C198.948 26.9336 204.375 24.7812 211.03 24.7812C215.372 24.7812 218.952 25.9904 221.771 28.4137C224.59 30.8611 226.005 34.6095 226.005 39.6688C226.005 46.4838 223.908 51.9106 219.713 55.9445C215.494 59.9832 210.288 62.0001 204.09 62.0001H204.085ZM205.205 51.7075C207.666 51.8042 209.812 50.9481 211.644 49.144C213.5 47.3641 214.512 45.0134 214.684 42.092C214.758 40.9312 214.669 39.9058 214.429 39.0303C214.188 38.1501 213.825 37.4197 213.343 36.8393C212.862 36.2589 212.277 35.8139 211.59 35.5043C210.902 35.1948 210.151 35.0303 209.331 35.0062C206.845 34.8852 204.655 35.7655 202.749 37.6422C200.893 39.4705 199.906 41.797 199.783 44.6216C199.64 46.9239 200.053 48.6603 201.03 49.8212C202.008 50.9868 203.398 51.6156 205.205 51.7075Z" fill="#FFECEC"/>
<path d="M90.6562 20.1473C93.4594 19.2822 95.0329 16.3843 94.1706 13.6747C93.3084 10.9651 90.3369 9.46981 87.5337 10.3349C84.7305 11.2001 83.157 14.0979 84.0193 16.8076C84.8815 19.5172 87.853 21.0125 90.6562 20.1473Z" fill="#FFECEC"/>
<path d="M102.079 27.0448C101.775 26.092 100.9 25.4729 99.9426 25.4342L99.8984 25.3036L91.8731 27.78L89.1522 24.4475C89.1424 24.3991 89.1276 24.3507 89.1129 24.3072C88.9213 23.7074 88.5088 23.2431 87.9882 22.9674L74.8403 14.9191V14.9287C74.3098 14.6724 73.691 14.6047 73.0918 14.7933C73.0279 14.8126 72.9641 14.8368 72.9051 14.861V14.8513L63.8878 17.6325C62.655 18.0146 61.9674 19.306 62.3554 20.5249C62.7434 21.7437 64.0547 22.416 65.2924 22.0339L73.47 19.5091L76.6575 21.4584C76.6673 21.5067 76.682 21.5502 76.6968 21.5986C76.7459 21.7486 76.8048 21.8888 76.8834 22.0243L69.4229 35.1899L69.477 35.2189C68.9367 35.9831 68.7501 36.9698 69.0497 37.9275C69.3493 38.8852 70.0614 39.5672 70.9258 39.8961V39.9058L81.4805 45.5261L72.581 50.5563C72.581 50.5563 72.5613 50.5611 72.5466 50.566C71.2991 50.9529 70.6066 52.2588 70.9946 53.4874C71.3826 54.7159 72.7136 55.3979 73.9611 55.0158C74.3098 54.9094 74.6143 54.7256 74.8648 54.4934L86.8389 47.7268C86.942 47.7074 87.0403 47.6833 87.1434 47.6542C88.5284 47.2286 89.2995 45.7776 88.8624 44.4136C88.6316 43.6929 88.1109 43.1464 87.4676 42.8465L79.1623 36.2637L85.4391 28.1669C85.5767 28.1524 85.7191 28.1234 85.8566 28.0799C85.9254 28.0605 85.9892 28.0363 86.0531 28.0073L88.8231 31.3931L88.9066 31.3253C89.275 32.196 90.1345 32.7425 91.0578 32.7425L91.0922 32.8441L101.298 29.6954L101.254 29.5648C102.015 28.994 102.379 27.9928 102.074 27.04L102.079 27.0448Z" fill="#FFECEC"/>
<path d="M68.5393 42.6816C67.3507 41.7868 66.6631 40.5922 66.6582 39.6055L57.7341 53.7578L56.0298 56.2004L56.074 56.2294C55.3668 56.8969 55.0574 57.9174 55.3717 58.8993C55.8088 60.2778 57.297 61.042 58.6968 60.6115C59.4728 60.3697 60.0572 59.8135 60.3519 59.1266L60.3961 59.1557L71.1718 43.7361C70.3516 43.6829 69.4086 43.3249 68.554 42.6816H68.5393Z" fill="#FFECEC"/>
</g>
<defs>
<clipPath id="clip0_727_1406">
<rect width="216" height="52" fill="white" transform="translate(10 10)"/>
</clipPath>
</defs>
</svg>
