<svg width="230" height="24" viewBox="0 0 230 24" fill="none" xmlns="http://www.w3.org/2000/svg">
<path d="M27.812 5.01663H16.145C13.855 5.01663 12 6.85163 12 9.11563V14.8836C12 17.1476 13.856 18.9836 16.145 18.9836H27.812C30.102 18.9836 31.957 17.1476 31.957 14.8836V9.11563C31.957 6.85163 30.101 5.01562 27.812 5.01562V5.01663ZM25.009 12.2796L19.552 14.8546C19.5187 14.8707 19.4819 14.878 19.445 14.876C19.4081 14.874 19.3724 14.8626 19.341 14.8431C19.3097 14.8235 19.2838 14.7964 19.2658 14.7641C19.2478 14.7318 19.2382 14.6956 19.238 14.6586V9.34963C19.2387 9.3125 19.2487 9.27614 19.2672 9.24395C19.2857 9.21176 19.3121 9.18477 19.3438 9.1655C19.3756 9.14624 19.4117 9.13532 19.4488 9.13377C19.4859 9.13221 19.5228 9.14008 19.556 9.15663L25.014 11.8916C25.0504 11.9098 25.0809 11.9378 25.102 11.9725C25.1232 12.0071 25.1341 12.0471 25.1336 12.0877C25.1331 12.1283 25.1211 12.168 25.0991 12.2021C25.077 12.2362 25.0458 12.2634 25.009 12.2806V12.2796Z" fill="#FFECEC"/>
<path d="M59.0462 5.865V8.613H57.0322V11.973H59.0462V21.959H63.1802V11.974H65.9552C65.9552 11.974 66.2152 10.363 66.3412 8.601H63.1972V6.303C63.1972 5.96 63.6472 5.498 64.0932 5.498H66.3472V2H63.2832C58.9432 2 59.0462 5.363 59.0462 5.865Z" fill="#FFECEC"/>
<path d="M112 5.90668C111.25 6.23405 110.456 6.44871 109.644 6.54368C110.497 6.04291 111.138 5.24878 111.448 4.30968C110.64 4.78 109.759 5.11128 108.841 5.28968C108.455 4.88488 107.99 4.56306 107.475 4.34385C106.96 4.12464 106.406 4.01264 105.846 4.01468C103.58 4.01468 101.743 5.82468 101.743 8.05468C101.743 8.37068 101.779 8.67968 101.849 8.97468C100.224 8.89737 98.6321 8.48208 97.1762 7.75531C95.7202 7.02855 94.4318 6.00626 93.393 4.75368C93.0288 5.36808 92.8374 6.06946 92.839 6.78368C92.8397 7.45164 93.0068 8.10891 93.3253 8.69607C93.6438 9.28323 94.1035 9.78179 94.663 10.1467C94.0125 10.1257 93.376 9.952 92.805 9.63968V9.68968C92.805 11.6477 94.22 13.2807 96.095 13.6527C95.7426 13.7462 95.3796 13.7936 95.015 13.7937C94.75 13.7937 94.493 13.7687 94.242 13.7187C94.5101 14.5266 95.0231 15.231 95.7098 15.734C96.3965 16.237 97.2228 16.5137 98.074 16.5257C96.6141 17.6502 94.8218 18.2577 92.979 18.2527C92.647 18.2527 92.321 18.2327 92 18.1967C93.8813 19.3874 96.0626 20.018 98.289 20.0147C105.836 20.0147 109.962 13.8577 109.962 8.51868L109.948 7.99568C110.753 7.42935 111.448 6.72152 112 5.90668Z" fill="#FFECEC"/>
<path d="M146.017 2H137.947C136.37 2.00185 134.858 2.62914 133.744 3.74424C132.629 4.85933 132.002 6.37115 132 7.948V16.018C132.002 17.5948 132.629 19.1066 133.744 20.2215C134.859 21.3364 136.371 21.9634 137.948 21.965H146.018C147.595 21.9631 149.107 21.3359 150.221 20.2208C151.336 19.1057 151.963 17.5938 151.965 16.017V7.947C151.963 6.37015 151.336 4.85844 150.221 3.74353C149.106 2.62862 147.594 2.00159 146.017 2V2ZM149.957 16.017C149.957 16.5344 149.855 17.0468 149.657 17.5248C149.459 18.0028 149.169 18.4371 148.803 18.803C148.437 19.1689 148.003 19.4591 147.525 19.6571C147.047 19.8551 146.534 19.957 146.017 19.957H137.947C136.902 19.9567 135.9 19.5415 135.162 18.8026C134.423 18.0638 134.008 17.0618 134.008 16.017V7.947C134.008 6.90222 134.423 5.90032 135.162 5.16165C135.901 4.42297 136.903 4.008 137.948 4.008H146.018C147.063 4.00827 148.065 4.42349 148.803 5.16235C149.542 5.90122 149.957 6.90322 149.957 7.948V16.018V16.017Z" fill="#FFECEC"/>
<path d="M141.982 6.81934C140.614 6.82145 139.302 7.36612 138.334 8.33394C137.367 9.30176 136.822 10.6138 136.82 11.9823C136.822 13.3513 137.366 14.6637 138.334 15.6317C139.302 16.5998 140.614 17.1445 141.983 17.1463C143.352 17.1447 144.665 16.6002 145.633 15.6321C146.601 14.664 147.146 13.3514 147.147 11.9823C147.145 10.6134 146.6 9.30122 145.632 8.33353C144.664 7.36584 143.351 6.82166 141.982 6.82034V6.81934ZM141.982 15.1383C141.146 15.1383 140.343 14.8059 139.751 14.2143C139.16 13.6226 138.827 12.8201 138.827 11.9833C138.827 11.1466 139.16 10.3441 139.751 9.75241C140.343 9.16074 141.146 8.82834 141.982 8.82834C142.819 8.82834 143.622 9.16074 144.213 9.75241C144.805 10.3441 145.137 11.1466 145.137 11.9833C145.137 12.8201 144.805 13.6226 144.213 14.2143C143.622 14.8059 142.819 15.1383 141.982 15.1383Z" fill="#FFECEC"/>
<path d="M147.156 8.09509C147.839 8.09509 148.393 7.54127 148.393 6.85809C148.393 6.17492 147.839 5.62109 147.156 5.62109C146.473 5.62109 145.919 6.17492 145.919 6.85809C145.919 7.54127 146.473 8.09509 147.156 8.09509Z" fill="#FFECEC"/>
<path d="M191.959 13.7194V21.0984H187.681V14.2134C187.681 12.4834 187.062 11.3034 185.514 11.3034C184.332 11.3034 183.628 12.0994 183.319 12.8684C183.206 13.1434 183.177 13.5264 183.177 13.9114V21.0984H178.897C178.897 21.0984 178.955 9.43837 178.897 8.22937H183.177V10.0534L183.149 10.0954H183.177V10.0534C183.745 9.17837 184.76 7.92737 187.033 7.92737C189.848 7.92737 191.959 9.76737 191.959 13.7194ZM174.421 2.02637C172.958 2.02637 172 2.98637 172 4.24937C172 5.48437 172.93 6.47337 174.365 6.47337H174.393C175.886 6.47337 176.813 5.48437 176.813 4.24937C176.787 2.98637 175.887 2.02637 174.422 2.02637H174.421ZM172.254 21.0984H176.532V8.22937H172.254V21.0984Z" fill="#FFECEC"/>
</svg>
