<svg width="40" height="40" viewBox="0 0 40 40" fill="none" xmlns="http://www.w3.org/2000/svg">
<path d="M39.384 0.316066C39.1933 0.17612 38.9702 0.0788993 38.7322 0.0320032C38.4942 -0.0148929 38.2477 -0.0101937 38.012 0.0457335L12.412 5.97083C12.0662 6.05085 11.7591 6.23549 11.5396 6.49545C11.32 6.75542 11.2005 7.07581 11.2 7.40581V27.7918C9.86513 26.9661 8.27046 26.5771 6.6694 26.6867C5.06834 26.7962 3.55276 27.398 2.36348 28.3964C1.1742 29.3948 0.379471 30.7325 0.105571 32.197C-0.168329 33.6615 0.0943186 35.1688 0.851776 36.4792C1.60923 37.7897 2.81805 38.8282 4.28612 39.4297C5.75419 40.0312 7.3973 40.1612 8.95434 39.7991C10.5114 39.437 11.893 38.6034 12.8797 37.431C13.8664 36.2585 14.4015 34.8144 14.4 33.3281V15.9694L36.8 10.785V21.8667C35.4651 21.041 33.8704 20.652 32.2694 20.7616C30.6683 20.8711 29.1527 21.4729 27.9635 22.4713C26.7742 23.4697 25.9795 24.8074 25.7056 26.2719C25.4317 27.7364 25.6943 29.2437 26.4518 30.5541C27.2092 31.8646 28.418 32.9031 29.8861 33.5046C31.3542 34.1061 32.9973 34.2361 34.5543 33.874C36.1114 33.5119 37.493 32.6783 38.4797 31.5059C39.4664 30.3334 40.0015 28.8893 40 27.403V1.48072C39.9994 1.25605 39.9437 1.03444 39.837 0.832669C39.7302 0.630893 39.5754 0.454235 39.384 0.316066Z" fill="black"/>
</svg>
